<svg xmlns="http://www.w3.org/2000/svg" width="21" height="21" viewBox="0 0 21 21">
    <g fill="none" fill-rule="evenodd">
        <path stroke="#FF2929" stroke-width=".5" d="M10.5 20a9.5 9.5 0 1 0 0-19 9.5 9.5 0 0 0 0 19z" opacity=".3"/>
        <path fill="#FF2525" d="M10.45 10v1.2h2.05c-.1.5-.6 1.5-2 1.5-1.2 0-2.15-1-2.15-2.2 0-1.2 1-2.2 2.15-2.2.7 0 1.15.3 1.4.55l.95-.9c-.6-.6-1.4-.95-2.35-.95C8.55 7 7 8.55 7 10.5S8.55 14 10.5 14c2 0 3.35-1.4 3.35-3.4 0-.25 0-.4-.05-.6h-3.35z"/>
    </g>
</svg>
