<svg xmlns="http://www.w3.org/2000/svg" width="21" height="21" viewBox="0 0 21 21">
    <g fill="none" fill-rule="evenodd">
        <path stroke="#2C81FF" stroke-width=".5" d="M20 10.5a9.5 9.5 0 1 1-19 0 9.5 9.5 0 0 1 19 0z" opacity=".3"/>
        <path fill="#2C81FF" d="M14.5 8.25c-.3.15-.6.2-.95.25.35-.2.6-.5.7-.9-.3.2-.65.3-1.05.4-.3-.3-.75-.5-1.2-.5-.85 0-1.6.75-1.6 1.65 0 .15 0 .25.05.35a4.6 4.6 0 0 1-3.4-1.7c-.15.25-.2.5-.2.85 0 .55.3 1.05.75 1.35-.25 0-.5-.1-.75-.2 0 .8.55 1.45 1.3 1.6-.15.05-.3.05-.45.05-.1 0-.2 0-.3-.05.2.65.8 1.15 1.55 1.15-.55.45-1.25.7-2.05.7h-.4c.75.45 1.6.75 2.5.75 3 0 4.65-2.5 4.65-4.65v-.2c.35-.25.65-.55.85-.9z"/>
    </g>
</svg>
